  0
SECTION
  2
HEADER
  9
$ACADVER
  1
AC1009
  9
$DWGCODEPAGE
  3
ANSI_1252
  9
$INSBASE
 10
0.0
 20
0.0
 30
0.0
  9
$EXTMIN
 10
1e+20
 20
1e+20
 30
1e+20
  9
$EXTMAX
 10
-1e+20
 20
-1e+20
 30
-1e+20
  9
$LIMMIN
 10
0.0
 20
0.0
  9
$LIMMAX
 10
420.0
 20
297.0
  9
$ORTHOMODE
 70
0
  9
$REGENMODE
 70
1
  9
$FILLMODE
 70
1
  9
$DRAGMODE
 70
2
  9
$QTEXTMODE
 70
0
  9
$MIRRTEXT
 70
1
  9
$OSMODE
 70
20583
  9
$LTSCALE
 40
1.0
  9
$ATTMODE
 70
1
  9
$TEXTSIZE
 40
2.5
  9
$TRACEWID
 40
1.0
  9
$TEXTSTYLE
  7
Standard
  9
$CLAYER
  8
0
  9
$CELTYPE
  6
ByLayer
  9
$CECOLOR
 62
256
  9
$DIMSCALE
 40
1.0
  9
$DIMASZ
 40
2.5
  9
$DIMEXO
 40
0.625
  9
$DIMDLI
 40
3.75
  9
$DIMRND
 40
0.0
  9
$DIMDLE
 40
0.0
  9
$DIMEXE
 40
1.25
  9
$DIMTP
 40
0.0
  9
$DIMTM
 40
0.0
  9
$DIMTXT
 40
2.5
  9
$DIMCEN
 40
2.5
  9
$DIMTSZ
 40
0.0
  9
$DIMTOL
 70
0
  9
$DIMLIM
 70
0
  9
$DIMTIH
 70
0
  9
$DIMTOH
 70
0
  9
$DIMSE1
 70
0
  9
$DIMSE2
 70
0
  9
$DIMTAD
 70
1
  9
$DIMZIN
 70
8
  9
$DIMBLK
  1

  9
$DIMASO
 70
1
  9
$DIMSHO
 70
1
  9
$DIMPOST
  1

  9
$DIMAPOST
  1

  9
$DIMALT
 70
0
  9
$DIMALTD
 70
3
  9
$DIMALTF
 40
0.03937007874
  9
$DIMLFAC
 40
1.0
  9
$DIMTOFL
 70
1
  9
$DIMTVP
 40
0.0
  9
$DIMTIX
 70
0
  9
$DIMSOXD
 70
0
  9
$DIMSAH
 70
0
  9
$DIMBLK1
  1

  9
$DIMBLK2
  1

  9
$DIMSTYLE
  2
ISO-25
  9
$DIMCLRD
 70
0
  9
$DIMCLRE
 70
0
  9
$DIMCLRT
 70
0
  9
$DIMTFAC
 40
1.0
  9
$DIMGAP
 40
0.625
  9
$COORDS
 70
1
  9
$ATTDIA
 70
0
  9
$ATTREQ
 70
1
  9
$HANDLING
 70
1
  9
$LUNITS
 70
2
  9
$LUPREC
 70
4
  9
$SKETCHINC
 40
1.0
  9
$FILLETRAD
 40
10.0
  9
$AUNITS
 70
0
  9
$AUPREC
 70
2
  9
$MENU
  1
.
  9
$ELEVATION
 40
0.0
  9
$PELEVATION
 40
0.0
  9
$THICKNESS
 40
0.0
  9
$LIMCHECK
 70
0
  9
$CHAMFERA
 40
0.0
  9
$CHAMFERB
 40
0.0
  9
$SKPOLY
 70
0
  9
$TDCREATE
 40
2461233.5975925927
  9
$TDUPDATE
 40
2461233.5975925927
  9
$TDINDWG
 40
0.0
  9
$TDUSRTIMER
 40
0.0
  9
$USRTIMER
 70
1
  9
$ANGBASE
 50
0.0
  9
$ANGDIR
 70
0
  9
$PDMODE
 70
0
  9
$PDSIZE
 40
0.0
  9
$PLINEWID
 40
0.0
  9
$SPLFRAME
 70
0
  9
$SPLINETYPE
 70
6
  9
$SPLINESEGS
 70
8
  9
$HANDSEED
  5
C7
  9
$SURFTAB1
 70
6
  9
$SURFTAB2
 70
6
  9
$SURFTYPE
 70
6
  9
$SURFU
 70
6
  9
$SURFV
 70
6
  9
$UCSNAME
  2

  9
$UCSORG
 10
0.0
 20
0.0
 30
0.0
  9
$UCSXDIR
 10
1.0
 20
0.0
 30
0.0
  9
$UCSYDIR
 10
0.0
 20
1.0
 30
0.0
  9
$PUCSNAME
  2

  9
$PUCSORG
 10
0.0
 20
0.0
 30
0.0
  9
$PUCSXDIR
 10
1.0
 20
0.0
 30
0.0
  9
$PUCSYDIR
 10
0.0
 20
1.0
 30
0.0
  9
$USERI1
 70
0
  9
$USERI2
 70
0
  9
$USERI3
 70
0
  9
$USERI4
 70
0
  9
$USERI5
 70
0
  9
$USERR1
 40
0.0
  9
$USERR2
 40
0.0
  9
$USERR3
 40
0.0
  9
$USERR4
 40
0.0
  9
$USERR5
 40
0.0
  9
$WORLDVIEW
 70
1
  9
$SHADEDGE
 70
3
  9
$SHADEDIF
 70
70
  9
$TILEMODE
 70
1
  9
$MAXACTVP
 70
64
  9
$PLIMCHECK
 70
0
  9
$PEXTMIN
 10
1e+20
 20
1e+20
 30
1e+20
  9
$PEXTMAX
 10
-1e+20
 20
-1e+20
 30
-1e+20
  9
$PLIMMIN
 10
0.0
 20
0.0
  9
$PLIMMAX
 10
420.0
 20
297.0
  9
$UNITMODE
 70
0
  9
$VISRETAIN
 70
1
  9
$PLINEGEN
 70
0
  9
$PSLTSCALE
 70
1
  0
ENDSEC
  0
SECTION
  2
TABLES
  0
TABLE
  2
VPORT
 70
1
  0
VPORT
  5
23
  2
*Active
 70
0
 10
0.0
 20
0.0
 11
1.0
 21
1.0
 12
0.0
 22
0.0
 13
0.0
 23
0.0
 14
0.5
 24
0.5
 15
0.5
 25
0.5
 16
0.0
 26
0.0
 36
1.0
 17
0.0
 27
0.0
 37
0.0
 40
1000.0
 41
1.34
 42
50.0
 43
0.0
 44
0.0
 50
0.0
 51
0.0
 71
0
 72
1000
 73
1
 74
3
 75
0
 76
0
 77
0
 78
0
  0
ENDTAB
  0
TABLE
  2
LTYPE
 70
3
  0
LTYPE
  5
24
  2
ByBlock
 70
0
  3

 72
65
 73
0
 40
0.0
  0
LTYPE
  5
25
  2
ByLayer
 70
0
  3

 72
65
 73
0
 40
0.0
  0
LTYPE
  5
26
  2
Continuous
 70
0
  3

 72
65
 73
0
 40
0.0
  0
ENDTAB
  0
TABLE
  2
LAYER
 70
2
  0
LAYER
  5
27
  2
0
 70
0
 62
7
  6
Continuous
  0
LAYER
  5
28
  2
Defpoints
 70
0
 62
7
  6
Continuous
  0
ENDTAB
  0
TABLE
  2
STYLE
 70
1
  0
STYLE
  5
29
  2
Standard
 70
0
 40
0.0
 41
1.0
 50
0.0
 71
0
 42
2.5
  3
txt
  4

  0
ENDTAB
  0
TABLE
  2
VIEW
 70
0
  0
ENDTAB
  0
TABLE
  2
UCS
 70
0
  0
ENDTAB
  0
TABLE
  2
APPID
 70
3
  0
APPID
  5
2A
  2
ACAD
 70
0
  0
APPID
  5
C5
  2
HATCHBACKGROUNDCOLOR
 70
0
  0
APPID
  5
C6
  2
EZDXF
 70
0
  0
ENDTAB
  0
TABLE
  2
DIMSTYLE
 70
1
  0
DIMSTYLE
105
2B
  2
Standard
 70
0
  3

  4

  5

  6

  7

 40
1.0
 41
2.5
 42
0.625
 43
3.75
 44
1.25
 45
0.0
 46
0.0
 47
0.0
 48
0.0
140
2.5
141
2.5
142
0.0
143
0.03937007874
144
1.0
145
0.0
146
1.0
147
0.625
 71
0
 72
0
 73
0
 74
0
 75
0
 76
0
 77
1
 78
8
170
0
171
3
172
1
173
0
174
0
175
0
176
0
177
0
178
0
  0
ENDTAB
  0
ENDSEC
  0
SECTION
  2
BLOCKS
  0
BLOCK
  5
18
  8
0
  2
$Model_Space
 70
0
 10
0.0
 20
0.0
 30
0.0
  3
$Model_Space
  1

1001
EZDXF
1000
CREATED_BY_EZDXF
1000
1.4.4 @ 2026-07-11T07:20:32.590408+00:00
1000
WRITTEN_BY_EZDXF
1000
1.4.4 @ 2026-07-11T07:20:32.604501+00:00
  0
ENDBLK
  5
19
  8
0
  0
BLOCK
  5
1C
  8
0
  2
$Paper_Space
 70
0
 10
0.0
 20
0.0
 30
0.0
  3
$Paper_Space
  1

  0
ENDBLK
  5
1D
  8
0
  0
ENDSEC
  0
SECTION
  2
ENTITIES
  0
CIRCLE
  5
2D
  8
0
 62
2
 10
-804.86
 20
520.0
 30
0.0
 40
5.0
  0
TEXT
  5
2E
  8
0
 62
2
 10
-802.86
 20
522.0
 30
0.0
 40
4.0
  1
A101_IN
  0
CIRCLE
  5
2F
  8
0
 62
5
 10
-804.86
 20
180.0
 30
0.0
 40
5.0
  0
TEXT
  5
30
  8
0
 62
5
 10
-802.86
 20
182.0
 30
0.0
 40
4.0
  1
A101_OUT
  0
CIRCLE
  5
31
  8
0
 62
2
 10
-767.46
 20
520.0
 30
0.0
 40
5.0
  0
TEXT
  5
32
  8
0
 62
2
 10
-765.46
 20
522.0
 30
0.0
 40
4.0
  1
A102_IN
  0
CIRCLE
  5
33
  8
0
 62
5
 10
-767.46
 20
180.0
 30
0.0
 40
5.0
  0
TEXT
  5
34
  8
0
 62
5
 10
-765.46
 20
182.0
 30
0.0
 40
4.0
  1
A102_OUT
  0
CIRCLE
  5
35
  8
0
 62
2
 10
-730.35
 20
520.0
 30
0.0
 40
5.0
  0
TEXT
  5
36
  8
0
 62
2
 10
-728.35
 20
522.0
 30
0.0
 40
4.0
  1
A103_IN
  0
CIRCLE
  5
37
  8
0
 62
5
 10
-730.35
 20
180.0
 30
0.0
 40
5.0
  0
TEXT
  5
38
  8
0
 62
5
 10
-728.35
 20
182.0
 30
0.0
 40
4.0
  1
A103_OUT
  0
CIRCLE
  5
39
  8
0
 62
2
 10
-693.15
 20
520.0
 30
0.0
 40
5.0
  0
TEXT
  5
3A
  8
0
 62
2
 10
-691.15
 20
522.0
 30
0.0
 40
4.0
  1
A104_IN
  0
CIRCLE
  5
3B
  8
0
 62
5
 10
-693.15
 20
180.0
 30
0.0
 40
5.0
  0
TEXT
  5
3C
  8
0
 62
5
 10
-691.15
 20
182.0
 30
0.0
 40
4.0
  1
A104_OUT
  0
CIRCLE
  5
3D
  8
0
 62
2
 10
-656.04
 20
520.0
 30
0.0
 40
5.0
  0
TEXT
  5
3E
  8
0
 62
2
 10
-654.04
 20
522.0
 30
0.0
 40
4.0
  1
A105_IN
  0
CIRCLE
  5
3F
  8
0
 62
5
 10
-656.04
 20
180.0
 30
0.0
 40
5.0
  0
TEXT
  5
40
  8
0
 62
5
 10
-654.04
 20
182.0
 30
0.0
 40
4.0
  1
A105_OUT
  0
CIRCLE
  5
41
  8
0
 62
2
 10
-601.78
 20
520.0
 30
0.0
 40
5.0
  0
TEXT
  5
42
  8
0
 62
2
 10
-599.78
 20
522.0
 30
0.0
 40
4.0
  1
A201_IN
  0
CIRCLE
  5
43
  8
0
 62
5
 10
-601.78
 20
180.0
 30
0.0
 40
5.0
  0
TEXT
  5
44
  8
0
 62
5
 10
-599.78
 20
182.0
 30
0.0
 40
4.0
  1
A201_OUT
  0
CIRCLE
  5
45
  8
0
 62
2
 10
-564.54
 20
520.0
 30
0.0
 40
5.0
  0
TEXT
  5
46
  8
0
 62
2
 10
-562.54
 20
522.0
 30
0.0
 40
4.0
  1
A202_IN
  0
CIRCLE
  5
47
  8
0
 62
5
 10
-564.54
 20
180.0
 30
0.0
 40
5.0
  0
TEXT
  5
48
  8
0
 62
5
 10
-562.54
 20
182.0
 30
0.0
 40
4.0
  1
A202_OUT
  0
CIRCLE
  5
49
  8
0
 62
2
 10
-527.33
 20
520.0
 30
0.0
 40
5.0
  0
TEXT
  5
4A
  8
0
 62
2
 10
-525.33
 20
522.0
 30
0.0
 40
4.0
  1
A203_IN
  0
CIRCLE
  5
4B
  8
0
 62
5
 10
-527.33
 20
180.0
 30
0.0
 40
5.0
  0
TEXT
  5
4C
  8
0
 62
5
 10
-525.33
 20
182.0
 30
0.0
 40
4.0
  1
A203_OUT
  0
CIRCLE
  5
4D
  8
0
 62
2
 10
-490.11
 20
520.0
 30
0.0
 40
5.0
  0
TEXT
  5
4E
  8
0
 62
2
 10
-488.11
 20
522.0
 30
0.0
 40
4.0
  1
A204_IN
  0
CIRCLE
  5
4F
  8
0
 62
5
 10
-490.11
 20
180.0
 30
0.0
 40
5.0
  0
TEXT
  5
50
  8
0
 62
5
 10
-488.11
 20
182.0
 30
0.0
 40
4.0
  1
A204_OUT
  0
CIRCLE
  5
51
  8
0
 62
2
 10
-435.98
 20
520.0
 30
0.0
 40
5.0
  0
TEXT
  5
52
  8
0
 62
2
 10
-433.98
 20
522.0
 30
0.0
 40
4.0
  1
A301_IN
  0
CIRCLE
  5
53
  8
0
 62
5
 10
-435.98
 20
180.0
 30
0.0
 40
5.0
  0
TEXT
  5
54
  8
0
 62
5
 10
-433.98
 20
182.0
 30
0.0
 40
4.0
  1
A301_OUT
  0
CIRCLE
  5
55
  8
0
 62
2
 10
-398.73
 20
520.0
 30
0.0
 40
5.0
  0
TEXT
  5
56
  8
0
 62
2
 10
-396.73
 20
522.0
 30
0.0
 40
4.0
  1
A302_IN
  0
CIRCLE
  5
57
  8
0
 62
5
 10
-398.73
 20
180.0
 30
0.0
 40
5.0
  0
TEXT
  5
58
  8
0
 62
5
 10
-396.73
 20
182.0
 30
0.0
 40
4.0
  1
A302_OUT
  0
CIRCLE
  5
59
  8
0
 62
2
 10
-361.5
 20
520.0
 30
0.0
 40
5.0
  0
TEXT
  5
5A
  8
0
 62
2
 10
-359.5
 20
522.0
 30
0.0
 40
4.0
  1
A303_IN
  0
CIRCLE
  5
5B
  8
0
 62
5
 10
-361.5
 20
180.0
 30
0.0
 40
5.0
  0
TEXT
  5
5C
  8
0
 62
5
 10
-359.5
 20
182.0
 30
0.0
 40
4.0
  1
A303_OUT
  0
CIRCLE
  5
5D
  8
0
 62
2
 10
-324.34
 20
520.0
 30
0.0
 40
5.0
  0
TEXT
  5
5E
  8
0
 62
2
 10
-322.34
 20
522.0
 30
0.0
 40
4.0
  1
A304_IN
  0
CIRCLE
  5
5F
  8
0
 62
5
 10
-324.34
 20
180.0
 30
0.0
 40
5.0
  0
TEXT
  5
60
  8
0
 62
5
 10
-322.34
 20
182.0
 30
0.0
 40
4.0
  1
A304_OUT
  0
CIRCLE
  5
61
  8
0
 62
2
 10
-287.12
 20
520.0
 30
0.0
 40
5.0
  0
TEXT
  5
62
  8
0
 62
2
 10
-285.12
 20
522.0
 30
0.0
 40
4.0
  1
A305_IN
  0
CIRCLE
  5
63
  8
0
 62
5
 10
-287.12
 20
180.0
 30
0.0
 40
5.0
  0
TEXT
  5
64
  8
0
 62
5
 10
-285.12
 20
182.0
 30
0.0
 40
4.0
  1
A305_OUT
  0
CIRCLE
  5
65
  8
0
 62
2
 10
120.0
 20
-14.42
 30
0.0
 40
5.0
  0
TEXT
  5
66
  8
0
 62
2
 10
122.0
 20
-12.42
 30
0.0
 40
4.0
  1
B101_IN
  0
CIRCLE
  5
67
  8
0
 62
5
 10
-240.0
 20
-14.42
 30
0.0
 40
5.0
  0
TEXT
  5
68
  8
0
 62
5
 10
-238.0
 20
-12.42
 30
0.0
 40
4.0
  1
B101_OUT
  0
CIRCLE
  5
69
  8
0
 62
2
 10
120.0
 20
-51.64
 30
0.0
 40
5.0
  0
TEXT
  5
6A
  8
0
 62
2
 10
122.0
 20
-49.64
 30
0.0
 40
4.0
  1
B102_IN
  0
CIRCLE
  5
6B
  8
0
 62
5
 10
-240.0
 20
-51.64
 30
0.0
 40
5.0
  0
TEXT
  5
6C
  8
0
 62
5
 10
-238.0
 20
-49.64
 30
0.0
 40
4.0
  1
B102_OUT
  0
CIRCLE
  5
6D
  8
0
 62
2
 10
120.0
 20
-88.81
 30
0.0
 40
5.0
  0
TEXT
  5
6E
  8
0
 62
2
 10
122.0
 20
-86.81
 30
0.0
 40
4.0
  1
B103_IN
  0
CIRCLE
  5
6F
  8
0
 62
5
 10
-240.0
 20
-88.81
 30
0.0
 40
5.0
  0
TEXT
  5
70
  8
0
 62
5
 10
-238.0
 20
-86.81
 30
0.0
 40
4.0
  1
B103_OUT
  0
CIRCLE
  5
71
  8
0
 62
2
 10
120.0
 20
-125.99
 30
0.0
 40
5.0
  0
TEXT
  5
72
  8
0
 62
2
 10
122.0
 20
-123.99
 30
0.0
 40
4.0
  1
B104_IN
  0
CIRCLE
  5
73
  8
0
 62
5
 10
-240.0
 20
-125.99
 30
0.0
 40
5.0
  0
TEXT
  5
74
  8
0
 62
5
 10
-238.0
 20
-123.99
 30
0.0
 40
4.0
  1
B104_OUT
  0
CIRCLE
  5
75
  8
0
 62
2
 10
120.0
 20
-163.32
 30
0.0
 40
5.0
  0
TEXT
  5
76
  8
0
 62
2
 10
122.0
 20
-161.32
 30
0.0
 40
4.0
  1
B105_IN
  0
CIRCLE
  5
77
  8
0
 62
5
 10
-240.0
 20
-163.32
 30
0.0
 40
5.0
  0
TEXT
  5
78
  8
0
 62
5
 10
-238.0
 20
-161.32
 30
0.0
 40
4.0
  1
B105_OUT
  0
CIRCLE
  5
79
  8
0
 62
2
 10
120.0
 20
-200.34
 30
0.0
 40
5.0
  0
TEXT
  5
7A
  8
0
 62
2
 10
122.0
 20
-198.34
 30
0.0
 40
4.0
  1
B106_IN
  0
CIRCLE
  5
7B
  8
0
 62
5
 10
-240.0
 20
-200.34
 30
0.0
 40
5.0
  0
TEXT
  5
7C
  8
0
 62
5
 10
-238.0
 20
-198.34
 30
0.0
 40
4.0
  1
B106_OUT
  0
CIRCLE
  5
7D
  8
0
 62
2
 10
120.0
 20
-235.0
 30
0.0
 40
5.0
  0
TEXT
  5
7E
  8
0
 62
2
 10
122.0
 20
-233.0
 30
0.0
 40
4.0
  1
B107_IN
  0
CIRCLE
  5
7F
  8
0
 62
5
 10
-240.0
 20
-235.0
 30
0.0
 40
5.0
  0
TEXT
  5
80
  8
0
 62
5
 10
-238.0
 20
-233.0
 30
0.0
 40
4.0
  1
B107_OUT
  0
CIRCLE
  5
81
  8
0
 62
2
 10
120.0
 20
-291.09
 30
0.0
 40
5.0
  0
TEXT
  5
82
  8
0
 62
2
 10
122.0
 20
-289.09
 30
0.0
 40
4.0
  1
B201_IN
  0
CIRCLE
  5
83
  8
0
 62
5
 10
-240.0
 20
-291.09
 30
0.0
 40
5.0
  0
TEXT
  5
84
  8
0
 62
5
 10
-238.0
 20
-289.09
 30
0.0
 40
4.0
  1
B201_OUT
  0
CIRCLE
  5
85
  8
0
 62
2
 10
120.0
 20
-328.34
 30
0.0
 40
5.0
  0
TEXT
  5
86
  8
0
 62
2
 10
122.0
 20
-326.34
 30
0.0
 40
4.0
  1
B202_IN
  0
CIRCLE
  5
87
  8
0
 62
5
 10
-240.0
 20
-328.34
 30
0.0
 40
5.0
  0
TEXT
  5
88
  8
0
 62
5
 10
-238.0
 20
-326.34
 30
0.0
 40
4.0
  1
B202_OUT
  0
CIRCLE
  5
89
  8
0
 62
2
 10
120.0
 20
-365.64
 30
0.0
 40
5.0
  0
TEXT
  5
8A
  8
0
 62
2
 10
122.0
 20
-363.64
 30
0.0
 40
4.0
  1
B203_IN
  0
CIRCLE
  5
8B
  8
0
 62
5
 10
-240.0
 20
-365.64
 30
0.0
 40
5.0
  0
TEXT
  5
8C
  8
0
 62
5
 10
-238.0
 20
-363.64
 30
0.0
 40
4.0
  1
B203_OUT
  0
CIRCLE
  5
8D
  8
0
 62
2
 10
120.0
 20
-402.82
 30
0.0
 40
5.0
  0
TEXT
  5
8E
  8
0
 62
2
 10
122.0
 20
-400.82
 30
0.0
 40
4.0
  1
B204_IN
  0
CIRCLE
  5
8F
  8
0
 62
5
 10
-240.0
 20
-402.82
 30
0.0
 40
5.0
  0
TEXT
  5
90
  8
0
 62
5
 10
-238.0
 20
-400.82
 30
0.0
 40
4.0
  1
B204_OUT
  0
CIRCLE
  5
91
  8
0
 62
2
 10
120.0
 20
-439.98
 30
0.0
 40
5.0
  0
TEXT
  5
92
  8
0
 62
2
 10
122.0
 20
-437.98
 30
0.0
 40
4.0
  1
B205_IN
  0
CIRCLE
  5
93
  8
0
 62
5
 10
-240.0
 20
-439.98
 30
0.0
 40
5.0
  0
TEXT
  5
94
  8
0
 62
5
 10
-238.0
 20
-437.98
 30
0.0
 40
4.0
  1
B205_OUT
  0
CIRCLE
  5
95
  8
0
 62
2
 10
120.0
 20
-476.99
 30
0.0
 40
5.0
  0
TEXT
  5
96
  8
0
 62
2
 10
122.0
 20
-474.99
 30
0.0
 40
4.0
  1
B206_IN
  0
CIRCLE
  5
97
  8
0
 62
5
 10
-240.0
 20
-476.99
 30
0.0
 40
5.0
  0
TEXT
  5
98
  8
0
 62
5
 10
-238.0
 20
-474.99
 30
0.0
 40
4.0
  1
B206_OUT
  0
CIRCLE
  5
99
  8
0
 62
2
 10
120.0
 20
-530.84
 30
0.0
 40
5.0
  0
TEXT
  5
9A
  8
0
 62
2
 10
122.0
 20
-528.84
 30
0.0
 40
4.0
  1
B301_IN
  0
CIRCLE
  5
9B
  8
0
 62
5
 10
-240.0
 20
-530.84
 30
0.0
 40
5.0
  0
TEXT
  5
9C
  8
0
 62
5
 10
-238.0
 20
-528.84
 30
0.0
 40
4.0
  1
B301_OUT
  0
CIRCLE
  5
9D
  8
0
 62
2
 10
120.0
 20
-568.08
 30
0.0
 40
5.0
  0
TEXT
  5
9E
  8
0
 62
2
 10
122.0
 20
-566.08
 30
0.0
 40
4.0
  1
B302_IN
  0
CIRCLE
  5
9F
  8
0
 62
5
 10
-240.0
 20
-568.08
 30
0.0
 40
5.0
  0
TEXT
  5
A0
  8
0
 62
5
 10
-238.0
 20
-566.08
 30
0.0
 40
4.0
  1
B302_OUT
  0
CIRCLE
  5
A1
  8
0
 62
2
 10
120.0
 20
-605.2
 30
0.0
 40
5.0
  0
TEXT
  5
A2
  8
0
 62
2
 10
122.0
 20
-603.2
 30
0.0
 40
4.0
  1
B303_IN
  0
CIRCLE
  5
A3
  8
0
 62
5
 10
-240.0
 20
-605.2
 30
0.0
 40
5.0
  0
TEXT
  5
A4
  8
0
 62
5
 10
-238.0
 20
-603.2
 30
0.0
 40
4.0
  1
B303_OUT
  0
CIRCLE
  5
A5
  8
0
 62
2
 10
120.0
 20
-642.4
 30
0.0
 40
5.0
  0
TEXT
  5
A6
  8
0
 62
2
 10
122.0
 20
-640.4
 30
0.0
 40
4.0
  1
B304_IN
  0
CIRCLE
  5
A7
  8
0
 62
5
 10
-240.0
 20
-642.4
 30
0.0
 40
5.0
  0
TEXT
  5
A8
  8
0
 62
5
 10
-238.0
 20
-640.4
 30
0.0
 40
4.0
  1
B304_OUT
  0
CIRCLE
  5
A9
  8
0
 62
2
 10
120.0
 20
-679.53
 30
0.0
 40
5.0
  0
TEXT
  5
AA
  8
0
 62
2
 10
122.0
 20
-677.53
 30
0.0
 40
4.0
  1
B305_IN
  0
CIRCLE
  5
AB
  8
0
 62
5
 10
-240.0
 20
-679.53
 30
0.0
 40
5.0
  0
TEXT
  5
AC
  8
0
 62
5
 10
-238.0
 20
-677.53
 30
0.0
 40
4.0
  1
B305_OUT
  0
CIRCLE
  5
AD
  8
0
 62
2
 10
120.0
 20
-716.82
 30
0.0
 40
5.0
  0
TEXT
  5
AE
  8
0
 62
2
 10
122.0
 20
-714.82
 30
0.0
 40
4.0
  1
B306_IN
  0
CIRCLE
  5
AF
  8
0
 62
5
 10
-240.0
 20
-716.82
 30
0.0
 40
5.0
  0
TEXT
  5
B0
  8
0
 62
5
 10
-238.0
 20
-714.82
 30
0.0
 40
4.0
  1
B306_OUT
  0
CIRCLE
  5
B1
  8
0
 62
2
 10
120.0
 20
-754.13
 30
0.0
 40
5.0
  0
TEXT
  5
B2
  8
0
 62
2
 10
122.0
 20
-752.13
 30
0.0
 40
4.0
  1
B307_IN
  0
CIRCLE
  5
B3
  8
0
 62
5
 10
-240.0
 20
-754.13
 30
0.0
 40
5.0
  0
TEXT
  5
B4
  8
0
 62
5
 10
-238.0
 20
-752.13
 30
0.0
 40
4.0
  1
B307_OUT
  0
CIRCLE
  5
B5
  8
0
 62
6
 10
-671.68
 20
578.62
 30
0.0
 40
8.0
  0
TEXT
  5
B6
  8
0
 62
6
 10
-668.68
 20
581.62
 30
0.0
 40
5.0
  1
PICK_UP_A
  0
CIRCLE
  5
B7
  8
0
 62
6
 10
170.06
 20
688.44
 30
0.0
 40
8.0
  0
TEXT
  5
B8
  8
0
 62
6
 10
173.06
 20
691.44
 30
0.0
 40
5.0
  1
GATE_IN_C
  0
CIRCLE
  5
B9
  8
0
 62
6
 10
239.02
 20
711.53
 30
0.0
 40
8.0
  0
TEXT
  5
BA
  8
0
 62
6
 10
242.02
 20
714.53
 30
0.0
 40
5.0
  1
GATE_IN_B
  0
CIRCLE
  5
BB
  8
0
 62
6
 10
265.0
 20
-452.47
 30
0.0
 40
8.0
  0
TEXT
  5
BC
  8
0
 62
6
 10
268.0
 20
-449.47
 30
0.0
 40
5.0
  1
GATE_OUT_A
  0
CIRCLE
  5
BD
  8
0
 62
6
 10
346.54
 20
-320.0
 30
0.0
 40
8.0
  0
TEXT
  5
BE
  8
0
 62
6
 10
349.54
 20
-317.0
 30
0.0
 40
5.0
  1
GATE_OUT_B
  0
CIRCLE
  5
BF
  8
0
 62
6
 10
330.0
 20
601.85
 30
0.0
 40
8.0
  0
TEXT
  5
C0
  8
0
 62
6
 10
333.0
 20
604.85
 30
0.0
 40
5.0
  1
GATE_IN_A
  0
CIRCLE
  5
C1
  8
0
 62
6
 10
456.12
 20
593.21
 30
0.0
 40
8.0
  0
TEXT
  5
C2
  8
0
 62
6
 10
459.12
 20
596.21
 30
0.0
 40
5.0
  1
START_ROUTE
  0
CIRCLE
  5
C3
  8
0
 62
6
 10
463.82
 20
-213.83
 30
0.0
 40
8.0
  0
TEXT
  5
C4
  8
0
 62
6
 10
466.82
 20
-210.83
 30
0.0
 40
5.0
  1
END_ROUTE
  0
ENDSEC
  0
EOF
