  0
SECTION
  2
HEADER
  9
$ACADVER
  1
AC1009
  9
$DWGCODEPAGE
  3
ANSI_1252
  9
$INSBASE
 10
0.0
 20
0.0
 30
0.0
  9
$EXTMIN
 10
1e+20
 20
1e+20
 30
1e+20
  9
$EXTMAX
 10
-1e+20
 20
-1e+20
 30
-1e+20
  9
$LIMMIN
 10
0.0
 20
0.0
  9
$LIMMAX
 10
420.0
 20
297.0
  9
$ORTHOMODE
 70
0
  9
$REGENMODE
 70
1
  9
$FILLMODE
 70
1
  9
$DRAGMODE
 70
2
  9
$QTEXTMODE
 70
0
  9
$MIRRTEXT
 70
1
  9
$OSMODE
 70
20583
  9
$LTSCALE
 40
1.0
  9
$ATTMODE
 70
1
  9
$TEXTSIZE
 40
2.5
  9
$TRACEWID
 40
1.0
  9
$TEXTSTYLE
  7
Standard
  9
$CLAYER
  8
0
  9
$CELTYPE
  6
ByLayer
  9
$CECOLOR
 62
256
  9
$DIMSCALE
 40
1.0
  9
$DIMASZ
 40
2.5
  9
$DIMEXO
 40
0.625
  9
$DIMDLI
 40
3.75
  9
$DIMRND
 40
0.0
  9
$DIMDLE
 40
0.0
  9
$DIMEXE
 40
1.25
  9
$DIMTP
 40
0.0
  9
$DIMTM
 40
0.0
  9
$DIMTXT
 40
2.5
  9
$DIMCEN
 40
2.5
  9
$DIMTSZ
 40
0.0
  9
$DIMTOL
 70
0
  9
$DIMLIM
 70
0
  9
$DIMTIH
 70
0
  9
$DIMTOH
 70
0
  9
$DIMSE1
 70
0
  9
$DIMSE2
 70
0
  9
$DIMTAD
 70
1
  9
$DIMZIN
 70
8
  9
$DIMBLK
  1

  9
$DIMASO
 70
1
  9
$DIMSHO
 70
1
  9
$DIMPOST
  1

  9
$DIMAPOST
  1

  9
$DIMALT
 70
0
  9
$DIMALTD
 70
3
  9
$DIMALTF
 40
0.03937007874
  9
$DIMLFAC
 40
1.0
  9
$DIMTOFL
 70
1
  9
$DIMTVP
 40
0.0
  9
$DIMTIX
 70
0
  9
$DIMSOXD
 70
0
  9
$DIMSAH
 70
0
  9
$DIMBLK1
  1

  9
$DIMBLK2
  1

  9
$DIMSTYLE
  2
ISO-25
  9
$DIMCLRD
 70
0
  9
$DIMCLRE
 70
0
  9
$DIMCLRT
 70
0
  9
$DIMTFAC
 40
1.0
  9
$DIMGAP
 40
0.625
  9
$COORDS
 70
1
  9
$ATTDIA
 70
0
  9
$ATTREQ
 70
1
  9
$HANDLING
 70
1
  9
$LUNITS
 70
2
  9
$LUPREC
 70
4
  9
$SKETCHINC
 40
1.0
  9
$FILLETRAD
 40
10.0
  9
$AUNITS
 70
0
  9
$AUPREC
 70
2
  9
$MENU
  1
.
  9
$ELEVATION
 40
0.0
  9
$PELEVATION
 40
0.0
  9
$THICKNESS
 40
0.0
  9
$LIMCHECK
 70
0
  9
$CHAMFERA
 40
0.0
  9
$CHAMFERB
 40
0.0
  9
$SKPOLY
 70
0
  9
$TDCREATE
 40
2461233.5975925927
  9
$TDUPDATE
 40
2461233.5975925927
  9
$TDINDWG
 40
0.0
  9
$TDUSRTIMER
 40
0.0
  9
$USRTIMER
 70
1
  9
$ANGBASE
 50
0.0
  9
$ANGDIR
 70
0
  9
$PDMODE
 70
0
  9
$PDSIZE
 40
0.0
  9
$PLINEWID
 40
0.0
  9
$SPLFRAME
 70
0
  9
$SPLINETYPE
 70
6
  9
$SPLINESEGS
 70
8
  9
$HANDSEED
  5
143
  9
$SURFTAB1
 70
6
  9
$SURFTAB2
 70
6
  9
$SURFTYPE
 70
6
  9
$SURFU
 70
6
  9
$SURFV
 70
6
  9
$UCSNAME
  2

  9
$UCSORG
 10
0.0
 20
0.0
 30
0.0
  9
$UCSXDIR
 10
1.0
 20
0.0
 30
0.0
  9
$UCSYDIR
 10
0.0
 20
1.0
 30
0.0
  9
$PUCSNAME
  2

  9
$PUCSORG
 10
0.0
 20
0.0
 30
0.0
  9
$PUCSXDIR
 10
1.0
 20
0.0
 30
0.0
  9
$PUCSYDIR
 10
0.0
 20
1.0
 30
0.0
  9
$USERI1
 70
0
  9
$USERI2
 70
0
  9
$USERI3
 70
0
  9
$USERI4
 70
0
  9
$USERI5
 70
0
  9
$USERR1
 40
0.0
  9
$USERR2
 40
0.0
  9
$USERR3
 40
0.0
  9
$USERR4
 40
0.0
  9
$USERR5
 40
0.0
  9
$WORLDVIEW
 70
1
  9
$SHADEDGE
 70
3
  9
$SHADEDIF
 70
70
  9
$TILEMODE
 70
1
  9
$MAXACTVP
 70
64
  9
$PLIMCHECK
 70
0
  9
$PEXTMIN
 10
1e+20
 20
1e+20
 30
1e+20
  9
$PEXTMAX
 10
-1e+20
 20
-1e+20
 30
-1e+20
  9
$PLIMMIN
 10
0.0
 20
0.0
  9
$PLIMMAX
 10
420.0
 20
297.0
  9
$UNITMODE
 70
0
  9
$VISRETAIN
 70
1
  9
$PLINEGEN
 70
0
  9
$PSLTSCALE
 70
1
  0
ENDSEC
  0
SECTION
  2
TABLES
  0
TABLE
  2
VPORT
 70
1
  0
VPORT
  5
23
  2
*Active
 70
0
 10
0.0
 20
0.0
 11
1.0
 21
1.0
 12
0.0
 22
0.0
 13
0.0
 23
0.0
 14
0.5
 24
0.5
 15
0.5
 25
0.5
 16
0.0
 26
0.0
 36
1.0
 17
0.0
 27
0.0
 37
0.0
 40
1000.0
 41
1.34
 42
50.0
 43
0.0
 44
0.0
 50
0.0
 51
0.0
 71
0
 72
1000
 73
1
 74
3
 75
0
 76
0
 77
0
 78
0
  0
ENDTAB
  0
TABLE
  2
LTYPE
 70
3
  0
LTYPE
  5
24
  2
ByBlock
 70
0
  3

 72
65
 73
0
 40
0.0
  0
LTYPE
  5
25
  2
ByLayer
 70
0
  3

 72
65
 73
0
 40
0.0
  0
LTYPE
  5
26
  2
Continuous
 70
0
  3

 72
65
 73
0
 40
0.0
  0
ENDTAB
  0
TABLE
  2
LAYER
 70
2
  0
LAYER
  5
27
  2
0
 70
0
 62
7
  6
Continuous
  0
LAYER
  5
28
  2
Defpoints
 70
0
 62
7
  6
Continuous
  0
ENDTAB
  0
TABLE
  2
STYLE
 70
1
  0
STYLE
  5
29
  2
Standard
 70
0
 40
0.0
 41
1.0
 50
0.0
 71
0
 42
2.5
  3
txt
  4

  0
ENDTAB
  0
TABLE
  2
VIEW
 70
0
  0
ENDTAB
  0
TABLE
  2
UCS
 70
0
  0
ENDTAB
  0
TABLE
  2
APPID
 70
3
  0
APPID
  5
2A
  2
ACAD
 70
0
  0
APPID
  5
141
  2
HATCHBACKGROUNDCOLOR
 70
0
  0
APPID
  5
142
  2
EZDXF
 70
0
  0
ENDTAB
  0
TABLE
  2
DIMSTYLE
 70
1
  0
DIMSTYLE
105
2B
  2
Standard
 70
0
  3

  4

  5

  6

  7

 40
1.0
 41
2.5
 42
0.625
 43
3.75
 44
1.25
 45
0.0
 46
0.0
 47
0.0
 48
0.0
140
2.5
141
2.5
142
0.0
143
0.03937007874
144
1.0
145
0.0
146
1.0
147
0.625
 71
0
 72
0
 73
0
 74
0
 75
0
 76
0
 77
1
 78
8
170
0
171
3
172
1
173
0
174
0
175
0
176
0
177
0
178
0
  0
ENDTAB
  0
ENDSEC
  0
SECTION
  2
BLOCKS
  0
BLOCK
  5
18
  8
0
  2
$Model_Space
 70
0
 10
0.0
 20
0.0
 30
0.0
  3
$Model_Space
  1

1001
EZDXF
1000
CREATED_BY_EZDXF
1000
1.4.4 @ 2026-07-11T07:20:32.285655+00:00
1000
WRITTEN_BY_EZDXF
1000
1.4.4 @ 2026-07-11T07:20:32.311959+00:00
  0
ENDBLK
  5
19
  8
0
  0
BLOCK
  5
1C
  8
0
  2
$Paper_Space
 70
0
 10
0.0
 20
0.0
 30
0.0
  3
$Paper_Space
  1

  0
ENDBLK
  5
1D
  8
0
  0
ENDSEC
  0
SECTION
  2
ENTITIES
  0
POLYLINE
  5
2D
  8
0
 62
1
 66
1
 10
0.0
 20
0.0
 30
0.0
 70
0
  0
VERTEX
  5
2F
  8
0
 10
463.82
 20
-213.83
 30
0.0
 70
0
  0
VERTEX
  5
30
  8
0
 10
372.02
 20
-213.83
 30
0.0
 70
0
  0
VERTEX
  5
31
  8
0
 10
365.4
 20
-214.79
 30
0.0
 70
0
  0
VERTEX
  5
32
  8
0
 10
359.36
 20
-217.37
 30
0.0
 70
0
  0
VERTEX
  5
33
  8
0
 10
354.16
 20
-221.44
 30
0.0
 70
0
  0
VERTEX
  5
34
  8
0
 10
350.13
 20
-226.52
 30
0.0
 70
0
  0
VERTEX
  5
35
  8
0
 10
347.76
 20
-232.7
 30
0.0
 70
0
  0
VERTEX
  5
36
  8
0
 10
346.54
 20
-239.48
 30
0.0
 70
0
  0
VERTEX
  5
37
  8
0
 10
346.54
 20
-424.64
 30
0.0
 70
0
  0
VERTEX
  5
38
  8
0
 10
345.77
 20
-432.01
 30
0.0
 70
0
  0
VERTEX
  5
39
  8
0
 10
343.61
 20
-438.23
 30
0.0
 70
0
  0
VERTEX
  5
3A
  8
0
 10
339.21
 20
-444.07
 30
0.0
 70
0
  0
VERTEX
  5
3B
  8
0
 10
333.47
 20
-447.38
 30
0.0
 70
0
  0
VERTEX
  5
3C
  8
0
 10
326.79
 20
-451.24
 30
0.0
 70
0
  0
VERTEX
  5
3D
  8
0
 10
318.77
 20
-452.47
 30
0.0
 70
0
  0
VERTEX
  5
3E
  8
0
 10
197.83
 20
-452.47
 30
0.0
 70
0
  0
VERTEX
  5
3F
  8
0
 10
189.81
 20
-451.24
 30
0.0
 70
0
  0
VERTEX
  5
40
  8
0
 10
183.13
 20
-447.38
 30
0.0
 70
0
  0
VERTEX
  5
41
  8
0
 10
177.39
 20
-444.07
 30
0.0
 70
0
  0
VERTEX
  5
42
  8
0
 10
172.99
 20
-438.23
 30
0.0
 70
0
  0
VERTEX
  5
43
  8
0
 10
170.83
 20
-432.01
 30
0.0
 70
0
  0
VERTEX
  5
44
  8
0
 10
170.06
 20
-424.64
 30
0.0
 70
0
  0
VERTEX
  5
45
  8
0
 10
170.06
 20
553.3
 30
0.0
 70
0
  0
VERTEX
  5
46
  8
0
 10
167.52
 20
564.05
 30
0.0
 70
0
  0
VERTEX
  5
47
  8
0
 10
161.49
 20
572.0
 30
0.0
 70
0
  0
VERTEX
  5
48
  8
0
 10
154.48
 20
576.51
 30
0.0
 70
0
  0
VERTEX
  5
49
  8
0
 10
144.59
 20
578.62
 30
0.0
 70
0
  0
VERTEX
  5
4A
  8
0
 10
-801.27
 20
578.62
 30
0.0
 70
0
  0
VERTEX
  5
4B
  8
0
 10
-814.57
 20
581.51
 30
0.0
 70
0
  0
VERTEX
  5
4C
  8
0
 10
-822.93
 20
591.92
 30
0.0
 70
0
  0
VERTEX
  5
4D
  8
0
 10
-824.02
 20
599.93
 30
0.0
 70
0
  0
VERTEX
  5
4E
  8
0
 10
-821.48
 20
607.35
 30
0.0
 70
0
  0
VERTEX
  5
4F
  8
0
 10
-815.78
 20
613.78
 30
0.0
 70
0
  0
VERTEX
  5
50
  8
0
 10
-810.29
 20
616.95
 30
0.0
 70
0
  0
VERTEX
  5
51
  8
0
 10
-805.95
 20
618.55
 30
0.0
 70
0
  0
VERTEX
  5
52
  8
0
 10
-106.35
 20
618.55
 30
0.0
 70
0
  0
VERTEX
  5
53
  8
0
 10
-88.34
 20
617.52
 30
0.0
 70
0
  0
VERTEX
  5
54
  8
0
 10
-67.31
 20
614.73
 30
0.0
 70
0
  0
VERTEX
  5
55
  8
0
 10
-48.8
 20
609.63
 30
0.0
 70
0
  0
VERTEX
  5
56
  8
0
 10
-25.98
 20
601.16
 30
0.0
 70
0
  0
VERTEX
  5
57
  8
0
 10
-4.28
 20
596.91
 30
0.0
 70
0
  0
VERTEX
  5
58
  8
0
 10
20.59
 20
595.55
 30
0.0
 70
0
  0
VERTEX
  5
59
  8
0
 10
58.8
 20
595.28
 30
0.0
 70
0
  0
VERTEX
  5
5A
  8
0
 10
97.8
 20
599.28
 30
0.0
 70
0
  0
VERTEX
  5
5B
  8
0
 10
97.8
 20
599.28
 30
0.0
 70
0
  0
VERTEX
  5
5C
  8
0
 10
98.69
 20
599.29
 30
0.0
 70
0
  0
VERTEX
  5
5D
  8
0
 10
99.57
 20
599.3
 30
0.0
 70
0
  0
VERTEX
  5
5E
  8
0
 10
100.45
 20
599.3
 30
0.0
 70
0
  0
VERTEX
  5
5F
  8
0
 10
101.33
 20
599.31
 30
0.0
 70
0
  0
VERTEX
  5
60
  8
0
 10
102.21
 20
599.31
 30
0.0
 70
0
  0
VERTEX
  5
61
  8
0
 10
103.09
 20
599.32
 30
0.0
 70
0
  0
VERTEX
  5
62
  8
0
 10
103.97
 20
599.32
 30
0.0
 70
0
  0
VERTEX
  5
63
  8
0
 10
104.85
 20
599.32
 30
0.0
 70
0
  0
VERTEX
  5
64
  8
0
 10
105.73
 20
599.32
 30
0.0
 70
0
  0
VERTEX
  5
65
  8
0
 10
106.62
 20
599.31
 30
0.0
 70
0
  0
VERTEX
  5
66
  8
0
 10
107.5
 20
599.31
 30
0.0
 70
0
  0
VERTEX
  5
67
  8
0
 10
108.38
 20
599.3
 30
0.0
 70
0
  0
VERTEX
  5
68
  8
0
 10
109.26
 20
599.3
 30
0.0
 70
0
  0
VERTEX
  5
69
  8
0
 10
110.14
 20
599.29
 30
0.0
 70
0
  0
VERTEX
  5
6A
  8
0
 10
111.02
 20
599.28
 30
0.0
 70
0
  0
VERTEX
  5
6B
  8
0
 10
140.02
 20
599.28
 30
0.0
 70
0
  0
VERTEX
  5
6C
  8
0
 10
140.02
 20
599.28
 30
0.0
 70
0
  0
VERTEX
  5
6D
  8
0
 10
143.02
 20
599.27
 30
0.0
 70
0
  0
VERTEX
  5
6E
  8
0
 10
146.0
 20
599.57
 30
0.0
 70
0
  0
VERTEX
  5
6F
  8
0
 10
148.94
 20
600.18
 30
0.0
 70
0
  0
VERTEX
  5
70
  8
0
 10
151.79
 20
601.11
 30
0.0
 70
0
  0
VERTEX
  5
71
  8
0
 10
154.53
 20
602.32
 30
0.0
 70
0
  0
VERTEX
  5
72
  8
0
 10
157.12
 20
603.82
 30
0.0
 70
0
  0
VERTEX
  5
73
  8
0
 10
159.55
 20
605.58
 30
0.0
 70
0
  0
VERTEX
  5
74
  8
0
 10
161.77
 20
607.59
 30
0.0
 70
0
  0
VERTEX
  5
75
  8
0
 10
163.78
 20
609.82
 30
0.0
 70
0
  0
VERTEX
  5
76
  8
0
 10
165.53
 20
612.24
 30
0.0
 70
0
  0
VERTEX
  5
77
  8
0
 10
167.02
 20
614.84
 30
0.0
 70
0
  0
VERTEX
  5
78
  8
0
 10
168.23
 20
617.58
 30
0.0
 70
0
  0
VERTEX
  5
79
  8
0
 10
169.15
 20
620.44
 30
0.0
 70
0
  0
VERTEX
  5
7A
  8
0
 10
169.76
 20
623.37
 30
0.0
 70
0
  0
VERTEX
  5
7B
  8
0
 10
170.06
 20
626.35
 30
0.0
 70
0
  0
VERTEX
  5
7C
  8
0
 10
170.06
 20
641.75
 30
0.0
 70
0
  0
VERTEX
  5
7D
  8
0
 10
170.06
 20
654.39
 30
0.0
 70
0
  0
VERTEX
  5
7E
  8
0
 10
170.06
 20
688.44
 30
0.0
 70
0
  0
VERTEX
  5
7F
  8
0
 10
169.52
 20
784.05
 30
0.0
 70
0
  0
VERTEX
  5
80
  8
0
 10
169.52
 20
784.05
 30
0.0
 70
0
  0
VERTEX
  5
81
  8
0
 10
169.77
 20
785.78
 30
0.0
 70
0
  0
VERTEX
  5
82
  8
0
 10
170.13
 20
787.49
 30
0.0
 70
0
  0
VERTEX
  5
83
  8
0
 10
170.62
 20
789.17
 30
0.0
 70
0
  0
VERTEX
  5
84
  8
0
 10
171.23
 20
790.8
 30
0.0
 70
0
  0
VERTEX
  5
85
  8
0
 10
171.95
 20
792.39
 30
0.0
 70
0
  0
VERTEX
  5
86
  8
0
 10
172.79
 20
793.93
 30
0.0
 70
0
  0
VERTEX
  5
87
  8
0
 10
173.74
 20
795.39
 30
0.0
 70
0
  0
VERTEX
  5
88
  8
0
 10
174.79
 20
796.79
 30
0.0
 70
0
  0
VERTEX
  5
89
  8
0
 10
175.93
 20
798.1
 30
0.0
 70
0
  0
VERTEX
  5
8A
  8
0
 10
177.17
 20
799.33
 30
0.0
 70
0
  0
VERTEX
  5
8B
  8
0
 10
178.5
 20
800.47
 30
0.0
 70
0
  0
VERTEX
  5
8C
  8
0
 10
179.9
 20
801.51
 30
0.0
 70
0
  0
VERTEX
  5
8D
  8
0
 10
181.38
 20
802.44
 30
0.0
 70
0
  0
VERTEX
  5
8E
  8
0
 10
182.92
 20
803.27
 30
0.0
 70
0
  0
VERTEX
  5
8F
  8
0
 10
184.51
 20
803.98
 30
0.0
 70
0
  0
VERTEX
  5
90
  8
0
 10
246.04
 20
803.98
 30
0.0
 70
0
  0
VERTEX
  5
91
  8
0
 10
246.04
 20
803.98
 30
0.0
 70
0
  0
VERTEX
  5
92
  8
0
 10
248.41
 20
804.17
 30
0.0
 70
0
  0
VERTEX
  5
93
  8
0
 10
250.79
 20
804.1
 30
0.0
 70
0
  0
VERTEX
  5
94
  8
0
 10
253.15
 20
803.78
 30
0.0
 70
0
  0
VERTEX
  5
95
  8
0
 10
255.46
 20
803.21
 30
0.0
 70
0
  0
VERTEX
  5
96
  8
0
 10
257.7
 20
802.39
 30
0.0
 70
0
  0
VERTEX
  5
97
  8
0
 10
259.83
 20
801.34
 30
0.0
 70
0
  0
VERTEX
  5
98
  8
0
 10
261.84
 20
800.07
 30
0.0
 70
0
  0
VERTEX
  5
99
  8
0
 10
263.7
 20
798.58
 30
0.0
 70
0
  0
VERTEX
  5
9A
  8
0
 10
265.4
 20
796.91
 30
0.0
 70
0
  0
VERTEX
  5
9B
  8
0
 10
266.9
 20
795.06
 30
0.0
 70
0
  0
VERTEX
  5
9C
  8
0
 10
268.19
 20
793.07
 30
0.0
 70
0
  0
VERTEX
  5
9D
  8
0
 10
269.27
 20
790.94
 30
0.0
 70
0
  0
VERTEX
  5
9E
  8
0
 10
270.11
 20
788.71
 30
0.0
 70
0
  0
VERTEX
  5
9F
  8
0
 10
270.7
 20
786.41
 30
0.0
 70
0
  0
VERTEX
  5
A0
  8
0
 10
271.05
 20
784.05
 30
0.0
 70
0
  0
VERTEX
  5
A1
  8
0
 10
271.05
 20
742.55
 30
0.0
 70
0
  0
VERTEX
  5
A2
  8
0
 10
271.05
 20
742.55
 30
0.0
 70
0
  0
VERTEX
  5
A3
  8
0
 10
270.84
 20
740.13
 30
0.0
 70
0
  0
VERTEX
  5
A4
  8
0
 10
270.36
 20
737.75
 30
0.0
 70
0
  0
VERTEX
  5
A5
  8
0
 10
269.61
 20
735.44
 30
0.0
 70
0
  0
VERTEX
  5
A6
  8
0
 10
268.59
 20
733.24
 30
0.0
 70
0
  0
VERTEX
  5
A7
  8
0
 10
267.33
 20
731.16
 30
0.0
 70
0
  0
VERTEX
  5
A8
  8
0
 10
265.83
 20
729.25
 30
0.0
 70
0
  0
VERTEX
  5
A9
  8
0
 10
264.12
 20
727.52
 30
0.0
 70
0
  0
VERTEX
  5
AA
  8
0
 10
262.22
 20
726.01
 30
0.0
 70
0
  0
VERTEX
  5
AB
  8
0
 10
260.16
 20
724.72
 30
0.0
 70
0
  0
VERTEX
  5
AC
  8
0
 10
257.97
 20
723.68
 30
0.0
 70
0
  0
VERTEX
  5
AD
  8
0
 10
255.67
 20
722.9
 30
0.0
 70
0
  0
VERTEX
  5
AE
  8
0
 10
253.29
 20
722.39
 30
0.0
 70
0
  0
VERTEX
  5
AF
  8
0
 10
250.87
 20
722.17
 30
0.0
 70
0
  0
VERTEX
  5
B0
  8
0
 10
248.45
 20
722.22
 30
0.0
 70
0
  0
VERTEX
  5
B1
  8
0
 10
246.04
 20
722.55
 30
0.0
 70
0
  0
VERTEX
  5
B2
  8
0
 10
246.03
 20
722.55
 30
0.0
 70
0
  0
VERTEX
  5
B3
  8
0
 10
246.03
 20
722.55
 30
0.0
 70
0
  0
VERTEX
  5
B4
  8
0
 10
245.17
 20
722.08
 30
0.0
 70
0
  0
VERTEX
  5
B5
  8
0
 10
244.35
 20
721.55
 30
0.0
 70
0
  0
VERTEX
  5
B6
  8
0
 10
243.58
 20
720.95
 30
0.0
 70
0
  0
VERTEX
  5
B7
  8
0
 10
242.85
 20
720.29
 30
0.0
 70
0
  0
VERTEX
  5
B8
  8
0
 10
242.17
 20
719.58
 30
0.0
 70
0
  0
VERTEX
  5
B9
  8
0
 10
241.56
 20
718.82
 30
0.0
 70
0
  0
VERTEX
  5
BA
  8
0
 10
241.0
 20
718.01
 30
0.0
 70
0
  0
VERTEX
  5
BB
  8
0
 10
240.51
 20
717.17
 30
0.0
 70
0
  0
VERTEX
  5
BC
  8
0
 10
240.08
 20
716.29
 30
0.0
 70
0
  0
VERTEX
  5
BD
  8
0
 10
239.72
 20
715.37
 30
0.0
 70
0
  0
VERTEX
  5
BE
  8
0
 10
239.44
 20
714.44
 30
0.0
 70
0
  0
VERTEX
  5
BF
  8
0
 10
239.22
 20
713.48
 30
0.0
 70
0
  0
VERTEX
  5
C0
  8
0
 10
239.09
 20
712.51
 30
0.0
 70
0
  0
VERTEX
  5
C1
  8
0
 10
239.02
 20
711.53
 30
0.0
 70
0
  0
VERTEX
  5
C2
  8
0
 10
239.04
 20
710.55
 30
0.0
 70
0
  0
VERTEX
  5
C3
  8
0
 10
239.04
 20
616.85
 30
0.0
 70
0
  0
VERTEX
  5
C4
  8
0
 10
239.04
 20
616.85
 30
0.0
 70
0
  0
VERTEX
  5
C5
  8
0
 10
239.12
 20
615.59
 30
0.0
 70
0
  0
VERTEX
  5
C6
  8
0
 10
239.3
 20
614.34
 30
0.0
 70
0
  0
VERTEX
  5
C7
  8
0
 10
239.57
 20
613.1
 30
0.0
 70
0
  0
VERTEX
  5
C8
  8
0
 10
239.93
 20
611.89
 30
0.0
 70
0
  0
VERTEX
  5
C9
  8
0
 10
240.38
 20
610.7
 30
0.0
 70
0
  0
VERTEX
  5
CA
  8
0
 10
240.92
 20
609.56
 30
0.0
 70
0
  0
VERTEX
  5
CB
  8
0
 10
241.54
 20
608.45
 30
0.0
 70
0
  0
VERTEX
  5
CC
  8
0
 10
242.24
 20
607.4
 30
0.0
 70
0
  0
VERTEX
  5
CD
  8
0
 10
243.02
 20
606.4
 30
0.0
 70
0
  0
VERTEX
  5
CE
  8
0
 10
243.87
 20
605.46
 30
0.0
 70
0
  0
VERTEX
  5
CF
  8
0
 10
244.79
 20
604.59
 30
0.0
 70
0
  0
VERTEX
  5
D0
  8
0
 10
245.77
 20
603.79
 30
0.0
 70
0
  0
VERTEX
  5
D1
  8
0
 10
246.81
 20
603.06
 30
0.0
 70
0
  0
VERTEX
  5
D2
  8
0
 10
247.9
 20
602.42
 30
0.0
 70
0
  0
VERTEX
  5
D3
  8
0
 10
249.03
 20
601.85
 30
0.0
 70
0
  0
VERTEX
  5
D4
  8
0
 10
377.29
 20
601.85
 30
0.0
 70
0
  0
VERTEX
  5
D5
  8
0
 10
377.29
 20
601.85
 30
0.0
 70
0
  0
VERTEX
  5
D6
  8
0
 10
377.51
 20
601.85
 30
0.0
 70
0
  0
VERTEX
  5
D7
  8
0
 10
377.73
 20
601.85
 30
0.0
 70
0
  0
VERTEX
  5
D8
  8
0
 10
377.96
 20
601.85
 30
0.0
 70
0
  0
VERTEX
  5
D9
  8
0
 10
378.18
 20
601.84
 30
0.0
 70
0
  0
VERTEX
  5
DA
  8
0
 10
378.4
 20
601.83
 30
0.0
 70
0
  0
VERTEX
  5
DB
  8
0
 10
378.62
 20
601.82
 30
0.0
 70
0
  0
VERTEX
  5
DC
  8
0
 10
378.85
 20
601.81
 30
0.0
 70
0
  0
VERTEX
  5
DD
  8
0
 10
379.07
 20
601.8
 30
0.0
 70
0
  0
VERTEX
  5
DE
  8
0
 10
379.29
 20
601.79
 30
0.0
 70
0
  0
VERTEX
  5
DF
  8
0
 10
379.52
 20
601.77
 30
0.0
 70
0
  0
VERTEX
  5
E0
  8
0
 10
379.74
 20
601.75
 30
0.0
 70
0
  0
VERTEX
  5
E1
  8
0
 10
379.96
 20
601.74
 30
0.0
 70
0
  0
VERTEX
  5
E2
  8
0
 10
380.18
 20
601.71
 30
0.0
 70
0
  0
VERTEX
  5
E3
  8
0
 10
380.4
 20
601.69
 30
0.0
 70
0
  0
VERTEX
  5
E4
  8
0
 10
380.63
 20
601.67
 30
0.0
 70
0
  0
VERTEX
  5
E5
  8
0
 10
456.12
 20
593.21
 30
0.0
 70
0
  0
SEQEND
  5
2E
  8
0
  0
POLYLINE
  5
E6
  8
0
 62
3
 66
1
 10
0.0
 20
0.0
 30
0.0
 70
0
  0
VERTEX
  5
E8
  8
0
 10
-810.44
 20
166.25
 30
0.0
 70
0
  0
VERTEX
  5
E9
  8
0
 10
-258.82
 20
166.25
 30
0.0
 70
0
  0
VERTEX
  5
EA
  8
0
 10
-258.82
 20
-860.25
 30
0.0
 70
0
  0
VERTEX
  5
EB
  8
0
 10
-323.83
 20
-860.25
 30
0.0
 70
0
  0
VERTEX
  5
EC
  8
0
 10
-323.82
 20
101.25
 30
0.0
 70
0
  0
VERTEX
  5
ED
  8
0
 10
-810.44
 20
101.25
 30
0.0
 70
0
  0
VERTEX
  5
EE
  8
0
 10
-810.44
 20
166.25
 30
0.0
 70
0
  0
VERTEX
  5
EF
  8
0
 10
-810.44
 20
166.25
 30
0.0
 70
0
  0
SEQEND
  5
E7
  8
0
  0
POLYLINE
  5
F0
  8
0
 62
3
 66
1
 10
0.0
 20
0.0
 30
0.0
 70
0
  0
VERTEX
  5
F2
  8
0
 10
-258.82
 20
166.25
 30
0.0
 70
0
  0
VERTEX
  5
F3
  8
0
 10
-810.44
 20
166.25
 30
0.0
 70
0
  0
VERTEX
  5
F4
  8
0
 10
-810.44
 20
86.25
 30
0.0
 70
0
  0
VERTEX
  5
F5
  8
0
 10
-258.82
 20
86.25
 30
0.0
 70
0
  0
VERTEX
  5
F6
  8
0
 10
-258.82
 20
166.25
 30
0.0
 70
0
  0
VERTEX
  5
F7
  8
0
 10
-258.82
 20
166.25
 30
0.0
 70
0
  0
VERTEX
  5
F8
  8
0
 10
-810.44
 20
101.25
 30
0.0
 70
0
  0
VERTEX
  5
F9
  8
0
 10
-343.82
 20
101.25
 30
0.0
 70
0
  0
VERTEX
  5
FA
  8
0
 10
-343.83
 20
-830.25
 30
0.0
 70
0
  0
VERTEX
  5
FB
  8
0
 10
-343.83
 20
-830.25
 30
0.0
 70
0
  0
VERTEX
  5
FC
  8
0
 10
-341.0
 20
-832.97
 30
0.0
 70
0
  0
VERTEX
  5
FD
  8
0
 10
-338.08
 20
-835.6
 30
0.0
 70
0
  0
VERTEX
  5
FE
  8
0
 10
-335.09
 20
-838.14
 30
0.0
 70
0
  0
VERTEX
  5
FF
  8
0
 10
-332.01
 20
-840.57
 30
0.0
 70
0
  0
VERTEX
  5
100
  8
0
 10
-328.85
 20
-842.91
 30
0.0
 70
0
  0
VERTEX
  5
101
  8
0
 10
-325.63
 20
-845.14
 30
0.0
 70
0
  0
VERTEX
  5
102
  8
0
 10
-322.33
 20
-847.27
 30
0.0
 70
0
  0
VERTEX
  5
103
  8
0
 10
-318.96
 20
-849.29
 30
0.0
 70
0
  0
VERTEX
  5
104
  8
0
 10
-315.53
 20
-851.2
 30
0.0
 70
0
  0
VERTEX
  5
105
  8
0
 10
-312.04
 20
-853.0
 30
0.0
 70
0
  0
VERTEX
  5
106
  8
0
 10
-308.5
 20
-854.68
 30
0.0
 70
0
  0
VERTEX
  5
107
  8
0
 10
-304.9
 20
-856.25
 30
0.0
 70
0
  0
VERTEX
  5
108
  8
0
 10
-301.25
 20
-857.7
 30
0.0
 70
0
  0
VERTEX
  5
109
  8
0
 10
-297.56
 20
-859.04
 30
0.0
 70
0
  0
VERTEX
  5
10A
  8
0
 10
-293.83
 20
-860.25
 30
0.0
 70
0
  0
VERTEX
  5
10B
  8
0
 10
-288.82
 20
-860.25
 30
0.0
 70
0
  0
VERTEX
  5
10C
  8
0
 10
-288.82
 20
-860.25
 30
0.0
 70
0
  0
VERTEX
  5
10D
  8
0
 10
-285.69
 20
-860.08
 30
0.0
 70
0
  0
VERTEX
  5
10E
  8
0
 10
-282.59
 20
-859.59
 30
0.0
 70
0
  0
VERTEX
  5
10F
  8
0
 10
-279.55
 20
-858.78
 30
0.0
 70
0
  0
VERTEX
  5
110
  8
0
 10
-276.62
 20
-857.66
 30
0.0
 70
0
  0
VERTEX
  5
111
  8
0
 10
-273.82
 20
-856.23
 30
0.0
 70
0
  0
VERTEX
  5
112
  8
0
 10
-271.19
 20
-854.52
 30
0.0
 70
0
  0
VERTEX
  5
113
  8
0
 10
-268.75
 20
-852.54
 30
0.0
 70
0
  0
VERTEX
  5
114
  8
0
 10
-266.53
 20
-850.32
 30
0.0
 70
0
  0
VERTEX
  5
115
  8
0
 10
-264.55
 20
-847.88
 30
0.0
 70
0
  0
VERTEX
  5
116
  8
0
 10
-262.84
 20
-845.25
 30
0.0
 70
0
  0
VERTEX
  5
117
  8
0
 10
-261.42
 20
-842.45
 30
0.0
 70
0
  0
VERTEX
  5
118
  8
0
 10
-260.29
 20
-839.52
 30
0.0
 70
0
  0
VERTEX
  5
119
  8
0
 10
-259.48
 20
-836.49
 30
0.0
 70
0
  0
VERTEX
  5
11A
  8
0
 10
-258.99
 20
-833.38
 30
0.0
 70
0
  0
VERTEX
  5
11B
  8
0
 10
-258.83
 20
-830.25
 30
0.0
 70
0
  0
VERTEX
  5
11C
  8
0
 10
-258.82
 20
-95.19
 30
0.0
 70
0
  0
VERTEX
  5
11D
  8
0
 10
-318.82
 20
-30.19
 30
0.0
 70
0
  0
VERTEX
  5
11E
  8
0
 10
-318.82
 20
106.25
 30
0.0
 70
0
  0
VERTEX
  5
11F
  8
0
 10
-810.44
 20
106.25
 30
0.0
 70
0
  0
VERTEX
  5
120
  8
0
 10
-810.44
 20
106.25
 30
0.0
 70
0
  0
SEQEND
  5
F1
  8
0
  0
POLYLINE
  5
121
  8
0
 62
3
 66
1
 10
0.0
 20
0.0
 30
0.0
 70
0
  0
VERTEX
  5
123
  8
0
 10
-522.44
 20
166.25
 30
0.0
 70
0
  0
VERTEX
  5
124
  8
0
 10
-522.44
 20
86.25
 30
0.0
 70
0
  0
VERTEX
  5
125
  8
0
 10
-810.44
 20
86.25
 30
0.0
 70
0
  0
VERTEX
  5
126
  8
0
 10
-810.44
 20
166.25
 30
0.0
 70
0
  0
VERTEX
  5
127
  8
0
 10
-522.44
 20
166.25
 30
0.0
 70
0
  0
VERTEX
  5
128
  8
0
 10
-522.44
 20
166.25
 30
0.0
 70
0
  0
SEQEND
  5
122
  8
0
  0
POLYLINE
  5
129
  8
0
 62
3
 66
1
 10
0.0
 20
0.0
 30
0.0
 70
0
  0
VERTEX
  5
12B
  8
0
 10
-258.82
 20
-10.11
 30
0.0
 70
0
  0
VERTEX
  5
12C
  8
0
 10
-343.82
 20
-10.11
 30
0.0
 70
0
  0
VERTEX
  5
12D
  8
0
 10
-343.82
 20
-273.34
 30
0.0
 70
0
  0
VERTEX
  5
12E
  8
0
 10
-258.82
 20
-273.34
 30
0.0
 70
0
  0
VERTEX
  5
12F
  8
0
 10
-258.82
 20
-10.11
 30
0.0
 70
0
  0
VERTEX
  5
130
  8
0
 10
-258.82
 20
-10.11
 30
0.0
 70
0
  0
SEQEND
  5
12A
  8
0
  0
POLYLINE
  5
131
  8
0
 62
3
 66
1
 10
0.0
 20
0.0
 30
0.0
 70
0
  0
VERTEX
  5
133
  8
0
 10
-258.82
 20
-286.65
 30
0.0
 70
0
  0
VERTEX
  5
134
  8
0
 10
-343.82
 20
-286.65
 30
0.0
 70
0
  0
VERTEX
  5
135
  8
0
 10
-343.82
 20
-503.65
 30
0.0
 70
0
  0
VERTEX
  5
136
  8
0
 10
-258.82
 20
-503.65
 30
0.0
 70
0
  0
VERTEX
  5
137
  8
0
 10
-258.82
 20
-286.65
 30
0.0
 70
0
  0
VERTEX
  5
138
  8
0
 10
-258.82
 20
-286.65
 30
0.0
 70
0
  0
SEQEND
  5
132
  8
0
  0
POLYLINE
  5
139
  8
0
 62
3
 66
1
 10
0.0
 20
0.0
 30
0.0
 70
0
  0
VERTEX
  5
13B
  8
0
 10
-258.82
 20
-526.25
 30
0.0
 70
0
  0
VERTEX
  5
13C
  8
0
 10
-343.82
 20
-526.25
 30
0.0
 70
0
  0
VERTEX
  5
13D
  8
0
 10
-343.82
 20
-780.53
 30
0.0
 70
0
  0
VERTEX
  5
13E
  8
0
 10
-258.82
 20
-780.53
 30
0.0
 70
0
  0
VERTEX
  5
13F
  8
0
 10
-258.82
 20
-526.25
 30
0.0
 70
0
  0
VERTEX
  5
140
  8
0
 10
-258.82
 20
-526.25
 30
0.0
 70
0
  0
SEQEND
  5
13A
  8
0
  0
ENDSEC
  0
EOF
